<svg viewBox="0 0 200 200" fill="none" xmlns="http://www.w3.org/2000/svg">
  <!-- Headband -->
  <path d="M 44 94 C 44 50 69 22 100 22 C 131 22 156 50 156 94" stroke="#1D2342" stroke-width="14" stroke-linecap="round" fill="none" />
  <!-- Red Speech Bubble -->
  <path d="M 100 28 C 137 28 164 55 164 92 C 164 110 157 126 145 137 C 147 149 155 161 166 168 C 148 167 130 159 117 148 C 111 151 106 153 100 153 C 63 153 36 126 36 92 C 36 55 63 28 100 28 Z" fill="#E51A24" />
  <!-- 3 White Chat Dots -->
  <circle cx="70" cy="92" r="10" fill="#FFFFFF" />
  <circle cx="100" cy="92" r="10" fill="#FFFFFF" />
  <circle cx="130" cy="92" r="10" fill="#FFFFFF" />
  <!-- Left Headset Cushion -->
  <rect x="22" y="72" width="19" height="40" rx="9.5" fill="#1D2342" />
  <!-- Right Headset Cushion -->
  <rect x="159" y="72" width="19" height="40" rx="9.5" fill="#1D2342" />
  <!-- Microphone Boom -->
  <path d="M 33 106 C 33 138 52 148 76 148 L 84 148" stroke="#1D2342" stroke-width="9" stroke-linecap="round" stroke-linejoin="round" fill="none" />
  <!-- Microphone Tip -->
  <rect x="77" y="140.5" width="22" height="15" rx="7.5" fill="#1D2342" />
</svg>
